<svg id="visual" viewBox="0 0 2200 500" width="2200" height="500" xmlns="http://www.w3.org/2000/svg" xmlns:xlink="http://www.w3.org/1999/xlink" version="1.1"><rect x="0" y="0" width="2200" height="500" fill="#ffffff"></rect><path d="M0 88L61.2 106.2C122.3 124.3 244.7 160.7 366.8 174.7C489 188.7 611 180.3 733.2 172.8C855.3 165.3 977.7 158.7 1100 168C1222.3 177.3 1344.7 202.7 1466.8 203.2C1589 203.7 1711 179.3 1833.2 157.3C1955.3 135.3 2077.7 115.7 2138.8 105.8L2200 96L2200 501L2138.8 501C2077.7 501 1955.3 501 1833.2 501C1711 501 1589 501 1466.8 501C1344.7 501 1222.3 501 1100 501C977.7 501 855.3 501 733.2 501C611 501 489 501 366.8 501C244.7 501 122.3 501 61.2 501L0 501Z" fill="#715df2"></path><path d="M0 193L61.2 192C122.3 191 244.7 189 366.8 192.2C489 195.3 611 203.7 733.2 217.2C855.3 230.7 977.7 249.3 1100 267.8C1222.3 286.3 1344.7 304.7 1466.8 289C1589 273.3 1711 223.7 1833.2 222C1955.3 220.3 2077.7 266.7 2138.8 289.8L2200 313L2200 501L2138.8 501C2077.7 501 1955.3 501 1833.2 501C1711 501 1589 501 1466.8 501C1344.7 501 1222.3 501 1100 501C977.7 501 855.3 501 733.2 501C611 501 489 501 366.8 501C244.7 501 122.3 501 61.2 501L0 501Z" fill="#6b4bf8"></path><path d="M0 277L61.2 276C122.3 275 244.7 273 366.8 276.5C489 280 611 289 733.2 308.2C855.3 327.3 977.7 356.7 1100 362.3C1222.3 368 1344.7 350 1466.8 336.7C1589 323.3 1711 314.7 1833.2 323.5C1955.3 332.3 2077.7 358.7 2138.8 371.8L2200 385L2200 501L2138.8 501C2077.7 501 1955.3 501 1833.2 501C1711 501 1589 501 1466.8 501C1344.7 501 1222.3 501 1100 501C977.7 501 855.3 501 733.2 501C611 501 489 501 366.8 501C244.7 501 122.3 501 61.2 501L0 501Z" fill="#6733fc"></path><path d="M0 370L61.2 372C122.3 374 244.7 378 366.8 379.8C489 381.7 611 381.3 733.2 389.5C855.3 397.7 977.7 414.3 1100 425.7C1222.3 437 1344.7 443 1466.8 441.7C1589 440.3 1711 431.7 1833.2 429.2C1955.3 426.7 2077.7 430.3 2138.8 432.2L2200 434L2200 501L2138.8 501C2077.7 501 1955.3 501 1833.2 501C1711 501 1589 501 1466.8 501C1344.7 501 1222.3 501 1100 501C977.7 501 855.3 501 733.2 501C611 501 489 501 366.8 501C244.7 501 122.3 501 61.2 501L0 501Z" fill="#6600ff"></path></svg>