<svg id="visual" viewBox="0 0 2200 500" width="2200" height="500" xmlns="http://www.w3.org/2000/svg" xmlns:xlink="http://www.w3.org/1999/xlink" version="1.1"><rect x="0" y="0" width="2200" height="500" fill="#FFFFFF"></rect><path d="M1212 0L1284 0L1284 100L1174 100L1174 200L1293 200L1293 300L1078 300L1078 400L1273 400L1273 500L0 500L0 400L0 400L0 300L0 300L0 200L0 200L0 100L0 100L0 0L0 0Z" fill="#715df2"></path><path d="M754 0L900 0L900 100L905 100L905 200L811 200L811 300L842 300L842 400L768 400L768 500L0 500L0 400L0 400L0 300L0 300L0 200L0 200L0 100L0 100L0 0L0 0Z" fill="#6940fa"></path><path d="M359 0L403 0L403 100L474 100L474 200L426 200L426 300L474 300L474 400L362 400L362 500L0 500L0 400L0 400L0 300L0 300L0 200L0 200L0 100L0 100L0 0L0 0Z" fill="#6600ff"></path></svg>